<?xml version="1.0" standalone="no"?>
<!DOCTYPE svg PUBLIC "-//W3C//DTD SVG 20010904//EN"
 "http://www.w3.org/TR/2001/REC-SVG-20010904/DTD/svg10.dtd">
<svg version="1.0" xmlns="http://www.w3.org/2000/svg"
 width="1980.000000pt" height="1080.000000pt" viewBox="0 0 1980.000000 1080.000000"
 preserveAspectRatio="xMidYMid meet">

<g transform="translate(0.000000,1080.000000) scale(0.100000,-0.100000)"
fill="#343a4099" stroke="none">
<path d="M3490 6450 c-110 -6 -198 -27 -270 -65 -32 -17 -148 -137 -183 -190
-15 -22 -36 -67 -47 -100 -51 -146 -94 -285 -109 -350 -20 -85 -40 -96 -65
-35 -9 22 -20 40 -26 40 -15 0 -33 -42 -36 -85 -1 -22 -9 -87 -19 -145 -9 -60
-14 -124 -10 -150 3 -25 5 -64 5 -87 -1 -23 6 -56 15 -73 15 -28 14 -35 -11
-116 -23 -73 -26 -97 -21 -167 2 -45 14 -118 25 -162 11 -44 23 -107 26 -141
l7 -60 -83 -13 c-174 -27 -320 -90 -528 -227 -136 -89 -176 -131 -234 -246
-64 -127 -102 -158 -195 -158 -37 0 -82 5 -101 10 -55 17 -249 24 -296 11 -56
-15 -130 -66 -189 -130 -27 -30 -80 -86 -116 -125 -123 -130 -163 -223 -162
-371 0 -97 2 -102 37 -159 38 -64 44 -80 24 -74 -7 3 -22 27 -33 54 -10 27
-21 51 -23 54 -7 9 -22 -26 -22 -53 0 -50 -29 -99 -96 -160 -118 -108 -221
-251 -281 -392 -92 -211 -113 -299 -113 -455 0 -154 8 -190 53 -239 20 -22 40
-56 46 -77 6 -21 26 -54 46 -74 35 -36 36 -38 42 -141 4 -71 12 -116 24 -141
23 -45 24 -71 4 -88 -8 -7 -15 -23 -15 -35 0 -12 -6 -28 -14 -34 -25 -21 -71
-231 -47 -216 6 3 11 13 11 21 0 19 17 18 29 -4 7 -10 11 -12 11 -4 0 8 9 12
23 10 16 -2 24 -13 31 -41 8 -29 24 -49 75 -90 36 -28 81 -69 101 -89 21 -21
41 -38 46 -38 5 0 20 -9 33 -19 l24 -18 -27 -19 c-19 -11 -32 -14 -41 -8 -54
40 -99 64 -120 64 -41 0 -101 36 -123 75 -12 19 -26 35 -31 35 -6 0 -18 14
-26 30 -21 41 -35 29 -35 -29 0 -64 20 -127 63 -198 19 -32 42 -83 52 -113 10
-30 26 -67 36 -82 11 -14 19 -29 19 -33 0 -14 72 -99 102 -121 33 -25 58 -31
58 -14 0 6 -8 10 -17 10 -41 0 -154 162 -130 186 4 4 25 -10 47 -30 42 -38 70
-46 70 -21 0 8 7 15 15 15 8 0 15 -4 15 -10 0 -5 6 -10 13 -10 7 0 18 -9 25
-20 7 -11 18 -20 26 -20 7 0 19 -7 26 -15 7 -8 21 -15 30 -15 16 0 53 -15 100
-42 8 -4 26 -14 39 -20 13 -7 36 -24 51 -38 15 -14 49 -36 76 -49 27 -13 62
-33 78 -44 28 -20 28 -21 8 -28 -13 -5 -33 -1 -58 12 -21 10 -49 19 -63 19
-34 0 -24 -6 50 -32 65 -23 135 -26 123 -6 -5 8 -1 9 12 4 10 -5 27 -11 37
-14 14 -4 16 -7 6 -13 -21 -12 -8 -18 67 -28 98 -14 194 -15 227 -2 25 10 29
9 34 -8 3 -14 17 -22 46 -26 23 -4 63 -14 89 -22 42 -13 48 -13 72 2 18 12 30
14 43 6 16 -9 16 -11 -7 -19 -29 -12 -29 -12 82 -41 117 -31 181 -37 200 -17
17 16 59 22 71 9 4 -3 -1 -15 -10 -26 -18 -20 -17 -20 16 -14 18 4 40 7 47 7
7 0 11 6 9 13 -4 9 11 12 57 11 66 -1 126 -14 193 -41 36 -15 160 -17 1190
-21 l1150 -4 24 26 c24 26 24 26 3 26 -26 0 -26 2 -7 40 17 33 32 38 41 15 7
-17 34 -21 34 -5 0 6 9 10 19 10 11 0 26 9 34 20 7 10 24 25 38 32 39 22 129
89 129 98 0 22 -43 16 -81 -12 -63 -45 -55 -29 14 30 l62 52 67 -6 66 -6 134
67 c301 152 361 194 509 357 34 38 64 61 87 68 52 14 58 2 14 -30 -39 -28 -72
-82 -72 -117 0 -10 -16 -40 -35 -67 -20 -28 -35 -62 -35 -78 0 -33 1 -33 144
38 67 33 117 67 181 125 48 44 98 82 111 85 13 3 24 10 24 16 0 5 8 8 18 7 31
-3 40 1 45 20 5 21 -16 31 -66 31 -16 0 -26 4 -22 10 3 6 31 10 60 10 42 0 56
4 63 18 17 32 24 96 22 202 -1 58 -2 112 -1 120 0 8 3 101 5 205 4 132 10 207
21 245 20 67 33 338 18 365 -9 15 -12 8 -18 -36 -9 -66 -13 -73 -31 -58 -12
10 -20 7 -44 -16 -25 -24 -30 -26 -36 -12 -7 20 26 81 96 176 32 42 59 70 67
67 8 -3 13 2 13 15 0 26 15 54 56 104 18 22 40 60 49 85 10 25 26 64 37 87 29
63 9 137 -70 262 -49 78 -104 125 -199 171 -95 45 -107 62 -127 173 -7 40 -23
110 -34 157 -12 47 -29 119 -37 160 -19 91 -30 121 -70 185 -17 28 -46 81 -64
118 -25 51 -51 84 -103 130 -38 34 -77 65 -86 69 -9 4 -84 43 -167 87 -91 48
-173 84 -208 92 -96 20 -222 7 -374 -40 -147 -46 -162 -47 -223 -26 -66 23
-125 74 -164 140 -53 91 -148 161 -359 266 -78 39 -146 74 -152 79 -17 14
-161 60 -207 65 -48 6 -209 79 -233 105 -14 15 -12 22 19 74 19 31 44 87 55
124 15 49 30 76 54 98 22 19 40 49 52 84 10 30 30 73 45 95 14 22 45 81 68
130 33 72 42 103 44 155 3 60 1 65 -18 68 -15 2 -34 -11 -63 -44 -23 -26 -44
-44 -48 -41 -3 4 3 26 14 49 32 66 54 134 75 233 20 92 18 147 -10 346 -8 58
-53 155 -100 217 -26 34 -163 142 -212 167 -53 27 -208 73 -260 78 -30 2 -107
1 -170 -3z m-260 -1119 c68 -23 125 -56 111 -65 -5 -4 -18 -2 -28 4 -10 5 -43
19 -74 30 -108 39 -117 67 -9 31z m-118 -36 c118 -27 219 -67 252 -100 9 -9
16 -33 16 -54 0 -60 -54 -114 -167 -168 -93 -45 -93 -45 -146 -33 -68 16 -94
30 -139 74 -45 44 -52 66 -46 151 3 55 8 69 33 95 47 50 97 58 197 35z m699
-185 c114 -29 158 -55 188 -110 21 -40 22 -50 12 -86 -27 -100 -108 -160 -212
-157 -94 3 -186 78 -233 190 -35 85 -34 126 5 165 29 29 33 31 93 25 34 -3
101 -16 147 -27z m-579 -607 c21 -3 43 -12 50 -21 12 -14 9 -15 -22 -8 -19 5
-52 12 -73 16 -21 4 -44 13 -50 20 -10 10 -5 11 23 6 19 -4 52 -10 72 -13z
m155 -49 c32 -9 73 -19 92 -24 35 -9 59 -26 49 -36 -3 -3 -23 -1 -45 5 -21 5
-49 12 -63 15 -24 5 -112 55 -98 56 4 0 33 -7 65 -16z m493 -137 c-26 -47
-140 -187 -152 -187 -4 0 -8 9 -8 20 0 12 29 48 70 87 38 37 73 76 76 87 8 26
25 48 32 41 3 -3 -5 -24 -18 -48z m-720 -274 c46 -23 66 -28 126 -27 66 1 75
4 140 47 38 26 87 64 109 86 42 42 74 57 38 19 -28 -30 -67 -107 -59 -115 3
-4 13 2 20 13 14 18 15 18 35 0 12 -11 21 -25 21 -33 0 -7 7 -13 15 -13 21 0
19 -10 -10 -51 -13 -20 -50 -51 -81 -69 -50 -28 -63 -31 -118 -27 -111 7 -217
56 -266 122 -21 27 -48 59 -60 70 -33 29 -100 115 -100 128 0 6 30 -19 68 -55
37 -37 92 -79 122 -95z m-27 -467 c26 -21 46 -41 43 -43 -7 -7 -126 88 -126
100 0 10 7 5 83 -57z m-2129 -448 c2 -7 8 -28 14 -47 7 -19 10 -36 8 -38 -4
-5 -46 74 -46 87 0 15 20 12 24 -2z m4516 -123 c-44 -45 -52 -47 -109 -29 -22
7 5 31 42 38 18 3 46 17 62 30 51 41 55 12 5 -39z m-4556 40 c3 -8 1 -15 -3
-15 -5 0 -11 7 -15 15 -3 8 -1 15 3 15 5 0 11 -7 15 -15z m5386 -46 c0 -34
-113 -135 -199 -178 -42 -22 -104 -60 -139 -85 -96 -71 -109 -59 -36 35 62 80
199 219 218 219 15 0 11 -36 -5 -46 -13 -7 -11 -44 2 -44 5 0 31 22 57 48 69
71 102 88 102 51z m-1500 -11 c62 -23 77 -64 33 -90 -44 -27 -149 -130 -167
-165 -33 -65 -108 -310 -115 -378 -7 -61 -4 -83 26 -190 56 -204 62 -220 86
-252 13 -18 36 -66 52 -107 25 -65 41 -88 120 -171 66 -68 94 -92 102 -84 8 8
17 8 31 0 26 -14 136 -8 156 8 8 7 25 11 38 9 13 -2 28 3 34 10 14 19 99 28
109 12 4 -6 2 -17 -4 -23 -19 -19 -12 -27 15 -17 17 7 31 7 38 1 8 -7 29 -2
64 14 29 13 52 20 52 16 0 -17 -79 -87 -136 -120 -79 -46 -93 -59 -110 -101
-8 -19 -30 -57 -48 -85 -38 -57 -85 -135 -131 -216 -18 -31 -53 -83 -78 -115
-26 -33 -70 -90 -98 -129 -59 -78 -133 -168 -195 -235 -22 -25 -52 -65 -66
-90 -14 -25 -44 -66 -67 -92 -34 -38 -47 -46 -75 -46 -18 0 -42 -4 -52 -10
-11 -5 -80 -17 -154 -27 -74 -9 -173 -23 -220 -30 -47 -7 -88 -11 -92 -8 -5 2
-8 13 -8 24 0 13 7 19 23 19 12 0 33 8 47 17 18 13 57 18 170 24 143 6 159 10
248 52 16 8 28 7 46 -3 23 -12 27 -10 56 24 48 54 70 83 70 92 0 4 18 29 40
55 41 49 48 67 30 85 -5 5 -11 22 -12 38 -3 32 -10 39 -57 55 -26 8 -37 8 -49
-1 -8 -7 -22 -17 -31 -23 -10 -5 -33 -20 -51 -32 -23 -15 -42 -20 -62 -16 -17
3 -28 1 -28 -6 0 -6 -11 -11 -24 -11 -14 0 -28 -4 -31 -10 -10 -16 -35 -12
-35 6 0 17 1 17 -80 -3 -14 -3 -30 -13 -36 -22 -10 -13 -15 -14 -37 -2 -15 8
-39 11 -59 8 -52 -10 -249 27 -307 57 -44 23 -121 95 -121 112 0 24 20 16 68
-26 41 -37 50 -41 96 -39 70 2 179 -11 191 -22 18 -17 216 2 253 25 21 13 13
27 -13 20 -21 -5 -25 -3 -25 14 0 29 15 35 76 33 58 -2 70 8 65 51 -3 28 33
108 49 108 6 0 10 7 10 15 0 10 -14 17 -40 21 -33 5 -40 11 -40 29 0 26 -6 28
-125 45 -78 11 -137 21 -320 55 -92 17 -146 39 -202 82 -34 25 -44 53 -19 53
7 0 19 -7 26 -16 8 -8 30 -22 49 -31 65 -28 88 -33 341 -73 34 -5 89 -4 143 2
71 9 87 14 87 27 0 10 11 32 25 51 31 43 31 62 0 91 -31 30 -32 49 -2 49 20 0
23 4 19 29 -3 22 1 29 16 33 13 4 22 16 24 34 2 19 10 30 23 33 11 2 25 11 32
20 11 14 17 11 51 -26 41 -44 56 -51 68 -32 3 6 17 8 31 4 16 -4 34 1 54 15
35 25 37 36 7 43 -20 6 -20 8 -7 24 8 10 20 28 27 41 12 21 11 22 -35 22 -31
0 -59 -7 -78 -20 -16 -11 -42 -20 -58 -20 -15 0 -67 -21 -115 -47 -96 -51
-204 -77 -264 -64 -60 14 -212 99 -282 159 -38 31 -82 67 -98 79 -16 11 -39
39 -50 62 -11 22 -50 68 -86 103 -37 34 -72 74 -79 90 -14 33 -43 38 -43 8 0
-23 -61 -110 -106 -151 -34 -31 -136 -89 -157 -89 -31 0 -145 -86 -237 -180
-54 -54 -116 -110 -137 -123 -21 -13 -104 -49 -184 -80 -150 -59 -189 -83
-167 -105 15 -15 38 -16 38 -1 0 17 50 60 61 54 5 -4 9 -34 9 -68 1 -34 7 -80
15 -102 18 -50 19 -105 2 -105 -17 0 -137 116 -137 132 0 17 -107 122 -175
173 -27 21 -56 46 -63 56 -16 23 -32 25 -32 4 0 -8 -5 -15 -11 -15 -7 0 -8 14
-4 39 4 24 2 42 -4 46 -7 4 -11 -3 -11 -18 0 -14 -7 -30 -15 -37 -27 -23 -15
-104 15 -95 11 4 23 -3 34 -19 19 -30 21 -56 4 -56 -7 0 4 -11 25 -25 20 -14
37 -30 37 -35 0 -6 11 -10 25 -10 15 0 25 -6 25 -14 0 -12 6 -12 28 -4 26 10
34 7 77 -26 27 -20 55 -45 62 -56 8 -11 27 -27 44 -35 16 -9 29 -21 29 -28 0
-6 14 -24 31 -38 39 -32 32 -50 -16 -42 -28 4 -35 2 -35 -11 0 -9 4 -16 9 -16
5 0 26 -20 46 -45 l37 -44 -19 -40 c-21 -47 -26 -48 -71 -21 -18 11 -34 20
-36 20 -2 0 -6 -13 -9 -30 -7 -32 -27 -42 -27 -13 0 9 -3 14 -6 10 -3 -3 0
-23 7 -44 7 -21 12 -42 11 -46 -1 -4 10 -23 24 -42 15 -19 21 -35 15 -35 -6 0
-55 18 -108 39 -108 43 -217 105 -335 190 -42 31 -118 85 -169 121 -51 36
-138 105 -195 153 -70 59 -119 93 -151 104 -67 22 -106 54 -126 102 -9 23 -24
59 -33 81 -9 22 -25 47 -35 56 -11 10 -19 20 -19 25 0 9 41 0 57 -14 20 -15
27 19 10 44 -22 31 -11 49 30 49 23 0 41 -8 56 -23 41 -44 96 -52 172 -27 20
6 43 9 52 5 14 -5 12 -9 -13 -24 -16 -10 -40 -30 -53 -44 -21 -23 -22 -27 -8
-33 22 -8 106 42 116 69 11 28 121 128 132 121 18 -11 8 -45 -16 -56 -21 -9
-36 -38 -20 -38 13 0 50 28 91 68 28 27 44 37 44 27 0 -27 29 -16 44 18 24 54
27 76 35 272 7 146 6 203 -5 245 -7 30 -18 87 -24 125 -6 39 -27 111 -46 162
-20 55 -34 110 -34 137 0 25 -5 48 -11 51 -5 4 -34 -3 -62 -16 -66 -29 -143
-31 -183 -4 -16 11 -49 22 -74 25 -40 4 -45 8 -48 33 -2 15 -8 27 -13 27 -5 0
-9 3 -9 8 0 4 26 8 57 9 32 1 59 7 61 13 6 17 27 11 50 -15 18 -21 31 -25 74
-25 45 0 62 6 109 38 87 58 159 123 166 150 3 13 9 19 12 14 9 -14 59 11 110
55 l42 35 -7 -43 c-4 -24 -21 -69 -39 -99 -18 -30 -35 -66 -38 -80 -8 -33 -61
-96 -87 -103 -28 -7 -25 3 16 52 20 23 34 44 31 47 -8 8 -95 -53 -107 -75 -5
-10 -10 -52 -11 -93 -1 -58 3 -83 20 -115 11 -23 37 -93 57 -155 45 -142 45
-142 82 -148 36 -6 66 -41 75 -88 11 -53 46 -92 83 -92 18 0 36 -4 39 -10 3
-5 14 -10 24 -10 10 0 39 -9 63 -20 63 -27 158 -30 323 -8 77 10 208 22 290
28 83 5 169 12 192 16 47 7 79 35 69 60 -4 9 2 22 14 32 12 10 24 38 29 66 5
26 16 55 24 63 13 13 17 9 32 -38 22 -69 30 -77 54 -55 19 17 21 16 68 -29 26
-26 66 -59 87 -73 22 -15 50 -36 62 -47 56 -52 72 -64 109 -82 82 -42 143 -54
214 -42 36 6 70 15 75 20 6 5 16 9 24 9 25 0 138 73 161 105 13 16 35 51 51
76 24 39 37 49 89 69 66 24 74 35 37 49 -13 5 -26 17 -29 25 -4 9 -15 16 -26
16 -26 0 -37 39 -22 81 23 65 17 76 -45 82 -81 8 -90 24 -17 31 22 2 46 7 53
11 7 4 25 8 40 7 33 -1 46 23 102 193 21 66 46 127 54 136 7 8 14 22 14 30 0
8 16 30 35 49 43 42 44 68 5 110 -36 39 -37 44 -6 36 15 -4 28 0 36 9 7 9 24
14 39 13 20 -2 26 2 26 16 0 10 -9 24 -20 30 -11 6 -22 12 -25 14 -2 2 2 7 10
12 15 9 43 5 90 -12z m-3740 -64 c11 -12 20 -34 20 -52 0 -18 7 -35 17 -40 19
-11 11 -42 -11 -42 -21 0 -30 18 -16 35 8 10 8 15 -2 22 -22 13 -78 111 -78
136 1 21 2 20 25 -8 13 -16 33 -39 45 -51z m142 24 c11 -16 26 -23 51 -23 24
-1 54 -15 91 -40 30 -21 65 -39 78 -41 101 -14 134 -26 122 -46 -3 -5 -13 -7
-21 -4 -8 3 -40 -1 -70 -10 -44 -13 -63 -14 -92 -5 -136 41 -142 44 -176 84
-27 31 -33 46 -28 66 11 49 22 53 45 19z m4223 -18 c0 -18 -33 -26 -47 -12 -6
6 -7 15 -3 22 10 16 50 8 50 -10z m-3955 -350 c0 -5 -7 -10 -15 -10 -8 0 -15
5 -15 10 0 6 7 10 15 10 8 0 15 -4 15 -10z m-983 -127 c-3 -10 -5 -2 -5 17 0
19 2 27 5 18 2 -10 2 -26 0 -35z m1783 22 c10 -12 10 -15 -4 -15 -9 0 -16 7
-16 15 0 8 2 15 4 15 2 0 9 -7 16 -15z m1196 -132 c9 -35 -47 -133 -77 -133
-36 0 -25 147 15 199 8 10 15 8 33 -15 13 -16 26 -39 29 -51z m-366 -363 c24
-7 23 -7 -10 -13 -109 -18 -273 -16 -253 4 17 16 216 24 263 9z m-1964 -415
c15 -11 16 -14 3 -15 -8 0 -24 7 -35 15 -15 11 -16 14 -3 15 8 0 24 -7 35 -15z
m1854 -100 c0 -23 -48 -87 -81 -107 -22 -14 -30 -24 -26 -38 5 -21 -9 -28 -15
-9 -5 16 -48 -7 -48 -25 0 -7 -11 -22 -23 -34 l-24 -22 -13 40 c-12 35 -11 42
3 58 10 10 17 23 17 28 0 5 26 21 58 36 31 15 73 41 92 57 38 33 60 39 60 16z
m-2337 -72 c3 -24 2 -43 -3 -43 -12 0 -20 27 -20 68 0 47 16 30 23 -25z m-35
-94 c-2 -6 -8 -10 -13 -10 -5 0 -11 4 -13 10 -2 6 4 11 13 11 9 0 15 -5 13
-11z m2972 -5 c0 -4 -8 -13 -17 -20 -17 -12 -17 -14 1 -27 12 -9 17 -20 13
-30 -10 -26 -68 -57 -106 -57 -18 0 -77 -13 -130 -29 -126 -38 -234 -62 -294
-65 -26 -1 -53 -8 -59 -14 -7 -7 -27 -12 -45 -12 -18 0 -33 -4 -33 -10 0 -5
-14 -17 -31 -25 -55 -29 -109 -2 -109 54 0 31 17 34 63 12 54 -26 62 -26 87
-1 11 11 29 20 41 20 11 0 29 5 40 11 11 5 47 12 81 15 33 2 66 8 72 13 6 5
34 12 61 16 59 9 97 22 106 37 4 5 37 12 75 15 70 5 94 15 94 38 0 16 59 65
78 65 6 0 12 -3 12 -6z m-2932 -73 c4 -27 81 -104 135 -134 44 -25 47 -37 8
-37 -65 0 -192 130 -176 181 8 26 29 20 33 -10z m5805 -68 c-14 -43 -29 -96
-33 -118 -11 -60 -37 -113 -60 -120 -14 -4 -20 -15 -20 -35 0 -46 -39 -69
-108 -66 -55 3 -112 21 -112 37 0 11 28 19 66 19 20 0 44 4 54 10 19 10 40 59
40 92 0 11 23 42 51 71 28 29 69 85 91 124 22 40 43 71 48 68 4 -3 -3 -40 -17
-82z m-3663 -30 c0 -19 -3 -24 -10 -17 -6 6 -8 18 -4 27 9 24 14 21 14 -10z
m2906 -116 c-44 -29 -89 -69 -117 -104 -17 -21 -67 -71 -112 -111 -45 -40
-108 -101 -139 -135 -67 -72 -74 -62 -19 26 59 93 77 113 128 143 73 42 123
85 123 106 0 10 5 18 10 18 6 0 15 11 22 25 12 27 47 43 93 44 27 0 28 -1 11
-12z m314 -121 c0 -2 -7 -7 -16 -10 -8 -3 -12 -2 -9 4 6 10 25 14 25 6z
m-3151 -113 c21 -46 145 -78 177 -46 12 12 39 17 108 19 119 4 303 22 340 35
40 13 56 -4 23 -25 -13 -9 -58 -23 -98 -30 -41 -7 -94 -18 -119 -24 -67 -17
-268 -42 -327 -42 -95 0 -141 39 -159 136 l-7 37 26 -19 c14 -10 30 -29 36
-41z m-1862 -9 c52 -14 88 -40 41 -30 -12 3 -52 11 -88 17 -72 12 -83 16 -75
29 6 10 44 5 122 -16z m-180 -60 c10 -14 28 -37 41 -51 12 -14 22 -30 22 -34
0 -5 6 -9 14 -9 7 0 19 -6 25 -14 7 -8 38 -26 69 -41 31 -14 64 -31 72 -36 38
-24 184 -89 201 -89 10 0 42 -9 71 -20 29 -11 78 -23 108 -27 68 -8 120 -29
120 -48 0 -20 -33 -19 -100 5 -38 13 -60 16 -72 9 -17 -9 -17 -12 -3 -32 8
-12 15 -28 15 -35 0 -12 -3 -12 -16 -1 -9 7 -19 22 -23 32 -5 12 -56 40 -140
77 -74 33 -141 66 -151 75 -9 8 -23 15 -31 15 -8 0 -27 9 -44 20 -16 11 -39
20 -50 20 -21 0 -115 95 -115 117 0 7 -8 13 -18 13 -15 0 -52 54 -52 75 0 16
42 1 57 -21z m-97 -109 c0 -27 -9 -32 -28 -13 -18 18 -14 38 8 38 15 0 20 -7
20 -25z m2400 -140 c-32 -23 -100 -35 -100 -17 1 18 19 34 33 29 8 -3 28 -2
44 3 50 15 58 10 23 -15z m-1421 -157 c25 -27 41 -54 38 -62 -4 -9 4 -16 21
-20 15 -3 45 -22 67 -42 l40 -36 -39 6 c-21 3 -46 12 -55 20 -9 8 -27 16 -41
18 -20 2 -25 9 -25 33 -1 36 -39 91 -77 111 -17 9 -28 23 -28 35 0 21 0 21 28
2 16 -10 48 -39 71 -65z m35 57 c24 -19 12 -39 -14 -22 -11 6 -20 17 -20 24 0
17 10 16 34 -2z m2121 -56 c11 -17 -1 -21 -15 -4 -8 9 -8 15 -2 15 6 0 14 -5
17 -11z m-1865 -21 c0 -13 -23 -5 -28 10 -2 7 2 10 12 6 9 -3 16 -11 16 -16z
m-445 -58 c38 0 65 -4 65 -10 0 -11 -137 -7 -212 6 -43 7 -48 16 -15 31 17 8
31 6 59 -8 25 -13 59 -19 103 -19z m2111 -5 c40 -16 41 -38 3 -43 -27 -3 -83
34 -74 49 9 13 30 11 71 -6z m204 -29 c0 -17 -14 -29 -23 -20 -8 8 3 34 14 34
5 0 9 -6 9 -14z m-1890 -72 c0 -2 -7 -4 -15 -4 -8 0 -15 4 -15 10 0 5 7 7 15
4 8 -4 15 -8 15 -10z m60 12 c0 -3 -4 -8 -10 -11 -5 -3 -10 -1 -10 4 0 6 5 11
10 11 6 0 10 -2 10 -4z"/>
<path d="M3475 4000 c-8 -13 4 -32 16 -25 12 8 12 35 0 35 -6 0 -13 -4 -16
-10z"/>
<path d="M1760 2624 c0 -8 11 -14 25 -14 14 0 25 4 25 9 0 5 -11 11 -25 13
-17 4 -25 1 -25 -8z"/>
<path d="M2305 1950 c3 -5 8 -10 11 -10 2 0 4 5 4 10 0 6 -5 10 -11 10 -5 0
-7 -4 -4 -10z"/>
<path d="M4548 1909 c-25 -14 -22 -46 3 -54 26 -9 42 6 37 36 -4 26 -16 32
-40 18z"/>
<path d="M3018 1725 c-16 -13 -24 -27 -18 -30 11 -7 60 23 60 36 0 18 -17 16
-42 -6z"/>
<path d="M2460 1690 c0 -6 7 -25 16 -41 11 -22 21 -29 37 -27 38 5 32 35 -12
58 -23 11 -41 16 -41 10z"/>
<path d="M4883 1536 c4 -10 4 -28 1 -42 -5 -19 -11 -23 -28 -18 -16 4 -30 -2
-47 -20 -13 -15 -44 -36 -69 -47 -25 -12 -53 -25 -62 -30 -11 -5 -27 -3 -44 6
-36 18 -47 10 -41 -31 4 -22 1 -37 -9 -45 -20 -16 -17 -56 4 -68 15 -8 18 -21
17 -65 0 -31 -6 -61 -13 -68 -6 -6 -12 -27 -12 -45 0 -27 -5 -35 -25 -43 -32
-12 -31 -27 3 -67 23 -28 34 -33 77 -35 49 -3 50 -3 49 26 0 17 9 38 21 50 11
12 28 31 36 44 11 16 28 23 57 26 52 4 72 20 72 56 0 21 17 43 75 97 72 68 93
103 59 103 -9 0 -46 -29 -82 -64 -60 -57 -141 -119 -195 -148 -16 -8 -26 -3
-53 23 -42 41 -43 53 -3 45 25 -5 32 -2 36 14 4 15 14 20 38 20 39 0 50 12 58
65 5 32 17 50 66 95 49 45 60 62 65 96 6 41 -2 55 -43 79 -11 6 -13 4 -8 -9z"/>
<path d="M1640 1415 c0 -8 5 -15 10 -15 6 0 10 7 10 15 0 8 -4 15 -10 15 -5 0
-10 -7 -10 -15z"/>
<path d="M2345 1090 c3 -5 8 -10 11 -10 2 0 4 5 4 10 0 6 -5 10 -11 10 -5 0
-7 -4 -4 -10z"/>
<path d="M4908 1052 c-14 -9 -43 -29 -66 -44 -38 -26 -82 -76 -82 -95 0 -5 16
-7 35 -5 29 3 35 8 35 28 0 17 6 24 20 24 13 0 24 10 30 25 5 14 14 25 19 25
10 0 45 50 39 55 -2 3 -15 -3 -30 -13z"/>
<path d="M2450 999 c0 -12 8 -23 20 -26 11 -3 20 -8 20 -12 0 -11 68 -43 82
-39 8 3 -7 18 -37 37 -27 17 -53 38 -58 46 -12 22 -27 18 -27 -6z"/>
<path d="M4925 923 c-30 -26 -65 -72 -65 -85 0 -5 6 -8 13 -8 11 0 23 13 90
97 26 32 0 30 -38 -4z"/>
<path d="M2260 910 c0 -5 5 -10 11 -10 5 0 7 5 4 10 -3 6 -8 10 -11 10 -2 0
-4 -4 -4 -10z"/>
<path d="M2535 830 c3 -5 11 -10 16 -10 6 0 7 5 4 10 -3 6 -11 10 -16 10 -6 0
-7 -4 -4 -10z"/>
<path d="M4653 830 c-25 -10 -32 -40 -9 -40 7 0 21 11 30 25 18 27 14 29 -21
15z"/>
<path d="M2420 755 c0 -9 5 -15 11 -13 6 2 11 8 11 13 0 5 -5 11 -11 13 -6 2
-11 -4 -11 -13z"/>
<path d="M2360 740 c0 -5 5 -10 11 -10 5 0 7 5 4 10 -3 6 -8 10 -11 10 -2 0
-4 -4 -4 -10z"/>
<path d="M2440 670 c0 -5 5 -10 10 -10 6 0 10 5 10 10 0 6 -4 10 -10 10 -5 0
-10 -4 -10 -10z"/>
<path d="M468 1708 c-6 -18 17 -91 30 -96 17 -5 15 44 -3 78 -17 33 -21 36
-27 18z"/>
<path d="M6390 673 c-179 -148 -385 -263 -585 -328 -81 -27 -182 -72 -191 -87
-3 -4 -16 -8 -29 -8 -13 0 -25 -3 -27 -7 -1 -5 -24 -18 -50 -30 -27 -13 -48
-27 -48 -33 0 -16 18 -12 69 14 109 57 203 99 311 140 210 80 331 144 440 232
30 25 78 62 105 83 28 21 56 45 64 55 28 34 4 21 -59 -31z"/>
<path d="M820 495 c0 -18 19 -40 26 -32 4 4 0 15 -9 24 -9 10 -17 13 -17 8z"/>
<path d="M895 370 c3 -5 10 -10 16 -10 5 0 9 5 9 10 0 6 -7 10 -16 10 -8 0
-12 -4 -9 -10z"/>
<path d="M941 361 c-12 -8 -8 -11 15 -17 16 -4 34 -10 39 -14 9 -7 124 -50
133 -50 3 0 -1 7 -8 15 -7 8 -23 15 -35 15 -12 0 -28 7 -35 15 -7 8 -23 15
-37 15 -13 0 -26 7 -29 15 -7 17 -22 19 -43 6z"/>
<path d="M5370 270 c-12 -8 -10 -10 8 -10 13 0 20 4 17 10 -7 12 -6 12 -25 0z"/>
<path d="M5360 170 c-8 -4 -32 -16 -52 -25 -21 -9 -38 -22 -38 -30 0 -19 24
-19 40 0 7 8 19 15 27 15 7 0 16 7 19 15 4 8 15 15 25 15 10 0 19 5 19 10 0
12 -19 12 -40 0z"/>
<path d="M5412 130 c-7 -11 -17 -20 -22 -20 -19 0 -120 -73 -120 -86 0 -11 17
-14 69 -14 38 0 83 -3 100 -6 28 -6 31 -4 31 17 0 33 -17 91 -32 112 -12 16
-14 16 -26 -3z"/>
</g>
</svg>
