<?xml version="1.0" standalone="no"?>
<!DOCTYPE svg PUBLIC "-//W3C//DTD SVG 20010904//EN"
 "http://www.w3.org/TR/2001/REC-SVG-20010904/DTD/svg10.dtd">
<svg version="1.0" xmlns="http://www.w3.org/2000/svg"
 width="225.000000pt" height="225.000000pt" viewBox="0 0 225.000000 225.000000"
 preserveAspectRatio="xMidYMid meet">

<g transform="translate(0.000000,225.000000) scale(0.100000,-0.100000)"
fill="#017CFF" stroke="none">
<path d="M965 1965 c-195 -54 -363 -214 -426 -406 -33 -103 -34 -255 -1 -349
33 -96 98 -201 202 -325 153 -182 231 -311 307 -510 42 -109 48 -117 86 -113
29 3 33 9 72 108 84 211 164 346 308 513 160 187 229 335 229 487 0 281 -187
524 -457 595 -73 19 -250 19 -320 0z m226 -396 c106 -36 168 -150 139 -254
-51 -181 -300 -210 -387 -46 -87 165 73 358 248 300z"/>
</g>
</svg>
