<?xml version="1.0" standalone="no"?>
<!DOCTYPE svg PUBLIC "-//W3C//DTD SVG 20010904//EN"
 "http://www.w3.org/TR/2001/REC-SVG-20010904/DTD/svg10.dtd">
<svg version="1.0" xmlns="http://www.w3.org/2000/svg"
 width="376.000000pt" height="184.000000pt" viewBox="0 0 376.000000 184.000000"
 preserveAspectRatio="xMidYMid meet">

<g transform="translate(0.000000,184.000000) scale(0.100000,-0.100000)"
fill="#f0f8ff90" stroke="none">
<path d="M908 1829 c-110 -12 -206 -79 -260 -181 -20 -37 -23 -58 -23 -148 0
-98 2 -109 30 -159 38 -68 102 -125 173 -151 70 -26 190 -29 259 -6 55 18 138
79 160 117 15 25 14 27 -28 67 -50 47 -64 51 -79 22 -18 -34 -89 -79 -134 -85
-139 -21 -251 105 -216 243 39 157 211 202 327 86 l44 -45 38 30 c63 50 66 56
40 91 -28 37 -112 95 -159 108 -52 15 -108 19 -172 11z"/>
<path d="M2265 1829 c-78 -10 -149 -46 -200 -100 -66 -70 -89 -127 -89 -219
-1 -108 23 -170 93 -241 73 -74 142 -101 256 -100 202 0 333 121 343 315 5
109 -21 180 -92 252 -78 77 -185 110 -311 93z m108 -140 c95 -26 151 -130 127
-236 -29 -130 -166 -191 -277 -122 -44 28 -73 79 -80 141 -7 72 11 131 52 173
50 50 107 64 178 44z"/>
<path d="M146 1816 c-141 -53 -171 -231 -53 -317 23 -16 83 -43 135 -59 52
-16 103 -37 114 -46 24 -22 23 -61 -1 -74 -46 -24 -167 -1 -235 45 l-36 24
-35 -69 -35 -69 73 -36 c160 -79 365 -58 433 43 50 73 38 172 -27 234 -31 30
-62 45 -150 73 -125 39 -139 47 -139 81 0 52 118 56 213 8 27 -13 51 -23 52
-22 7 8 65 115 65 120 0 3 -30 20 -67 39 -61 30 -78 34 -168 36 -69 2 -112 -1
-139 -11z"/>
<path d="M1330 1500 l0 -320 80 0 80 0 0 100 0 100 28 6 c15 3 43 10 62 15 63
16 63 16 114 -106 l49 -115 83 0 c46 0 84 3 84 8 0 4 -26 67 -57 140 l-57 133
27 22 c75 62 77 220 2 286 -51 44 -90 51 -302 51 l-193 0 0 -320z m361 170
c25 -14 26 -71 2 -92 -16 -14 -151 -48 -189 -48 -11 0 -14 18 -14 75 l0 75 91
0 c50 0 99 -5 110 -10z"/>
<path d="M2747 1813 c-4 -3 -7 -147 -7 -320 l0 -313 240 0 241 0 -3 68 -3 67
-152 3 -153 3 0 249 0 250 -78 0 c-43 0 -82 -3 -85 -7z"/>
<path d="M3290 1500 l0 -320 235 0 235 0 0 70 0 70 -155 0 -155 0 0 250 0 250
-80 0 -80 0 0 -320z"/>
<path d="M640 884 c63 -36 325 -184 581 -330 l465 -264 194 0 194 0 577 328
577 327 -195 3 -195 2 -479 -275 -479 -275 -479 275 -478 275 -199 0 -199 0
115 -66z"/>
<path d="M265 787 c11 -8 327 -188 702 -400 l681 -387 232 0 232 0 700 398
700 397 -236 3 -236 2 -575 -330 c-317 -181 -580 -330 -585 -330 -5 0 -268
148 -584 330 l-575 330 -238 0 c-201 0 -234 -2 -218 -13z"/>
</g>
</svg>
